<svg width="86" height="40" viewBox="0 0 86 40" fill="none" xmlns="http://www.w3.org/2000/svg">
<path d="M0 15C0 6.71573 6.71573 0 15 0H69C78.3888 0 86 7.61116 86 17C86 26.3888 78.3888 34 69 34H0V15Z" fill="#2CC39B"/>
<path d="M0 34H6V40L0 34Z" fill="#0D785B"/>
<path fill-rule="evenodd" clip-rule="evenodd" d="M13.0406 9.26412L10.976 11.7416H7.55322C7.1677 11.7416 6.87445 12.0878 6.93783 12.4681L7.33666 14.861L5.14462 17.4915C4.92091 17.7599 4.96129 18.1598 5.23416 18.378L7.33666 20.06V23.0755C7.33666 23.42 7.61598 23.6993 7.96054 23.6993H10.976L12.5684 25.6899C12.8181 26.0021 13.293 26.0021 13.5427 25.6899L15.1352 23.6993H18.6705C19.015 23.6993 19.2944 23.42 19.2944 23.0755V20.06L21.3969 18.378C21.6697 18.1598 21.7101 17.7599 21.4864 17.4915L19.2944 14.861V12.3655C19.2944 12.021 19.015 11.7416 18.6705 11.7416H15.6551L14.0389 9.31745C13.8076 8.97046 13.3075 8.94375 13.0406 9.26412ZM15.1352 14.8609L9.93616 21.0997L10.735 21.7654L15.934 15.5266L15.1352 14.8609ZM13.0556 14.861C13.0556 15.4353 12.59 15.9008 12.0158 15.9008C11.4415 15.9008 10.976 15.4353 10.976 14.861C10.976 14.2867 11.4415 13.8212 12.0158 13.8212C12.59 13.8212 13.0556 14.2867 13.0556 14.861ZM15.1352 22.1395C15.7094 22.1395 16.175 21.674 16.175 21.0997C16.175 20.5254 15.7094 20.0599 15.1352 20.0599C14.5609 20.0599 14.0954 20.5254 14.0954 21.0997C14.0954 21.674 14.5609 22.1395 15.1352 22.1395Z" fill="white"/>
<path d="M29.9738 22.1456C29.4206 22.1456 28.9306 22.0437 28.5035 21.8399C28.0862 21.6264 27.7369 21.3401 27.4554 20.981C27.174 20.6219 26.9605 20.2192 26.8149 19.7727C26.6693 19.3263 26.5965 18.8653 26.5965 18.3898C26.5965 17.9725 26.6499 17.5067 26.7567 16.9923C26.8634 16.478 27.0236 15.9539 27.2371 15.4201C27.4603 14.8767 27.7466 14.3575 28.0959 13.8625C28.4453 13.3676 28.8626 12.926 29.3479 12.5378C29.8331 12.1399 30.3911 11.8342 31.0219 11.6207C31.1093 11.6013 31.1869 11.5916 31.2549 11.5916C31.4101 11.5916 31.546 11.6353 31.6625 11.7226C31.7886 11.8002 31.8517 11.9458 31.8517 12.1593C31.8517 12.2952 31.808 12.4165 31.7207 12.5233C31.6333 12.6203 31.5169 12.6931 31.3713 12.7416C30.9831 12.8872 30.5998 13.1007 30.2213 13.3821C29.8525 13.6539 29.508 13.979 29.1877 14.3575C28.8772 14.7262 28.6054 15.129 28.3725 15.5657C28.1493 15.9927 27.994 16.4391 27.9067 16.905L27.5573 17.0214C27.7223 16.7594 27.931 16.5119 28.1833 16.279C28.4356 16.0461 28.7268 15.8569 29.0567 15.7113C29.3964 15.5657 29.7652 15.4929 30.1631 15.4929C30.5901 15.4929 30.988 15.5851 31.3568 15.7695C31.7255 15.9539 32.0506 16.2014 32.3321 16.5119C32.6135 16.8225 32.8319 17.1816 32.9872 17.5892C33.1521 17.9871 33.2346 18.4044 33.2346 18.8411C33.2346 19.4331 33.0891 19.9814 32.7979 20.486C32.5165 20.981 32.1283 21.3837 31.6333 21.6943C31.1481 21.9951 30.5949 22.1456 29.9738 22.1456ZM29.9593 21.0538C30.3572 21.0538 30.7114 20.9616 31.0219 20.7772C31.3422 20.5831 31.5945 20.3211 31.7789 19.9911C31.9633 19.6514 32.0555 19.2681 32.0555 18.8411C32.0555 18.4432 31.973 18.0744 31.808 17.7347C31.643 17.3951 31.4053 17.1233 31.0947 16.9195C30.7939 16.706 30.4299 16.5993 30.0029 16.5993C29.5468 16.5993 29.1538 16.7012 28.8238 16.905C28.4938 17.1088 28.2367 17.3854 28.0523 17.7347C27.8776 18.0744 27.7902 18.4529 27.7902 18.8702C27.7902 19.2584 27.8776 19.6175 28.0523 19.9474C28.227 20.2774 28.4744 20.5443 28.7947 20.7481C29.1246 20.9519 29.5128 21.0538 29.9593 21.0538ZM38.0817 22.1456C37.2762 22.1456 36.6017 21.9175 36.0583 21.4614C35.5245 21.0053 35.1169 20.3793 34.8355 19.5835C34.5637 18.7877 34.4279 17.8949 34.4279 16.905C34.4279 15.8957 34.5637 14.998 34.8355 14.2119C35.1169 13.4258 35.5245 12.8047 36.0583 12.3486C36.6017 11.8924 37.2762 11.6644 38.0817 11.6644C38.8872 11.6644 39.5569 11.8924 40.0906 12.3486C40.6341 12.8047 41.0417 13.4258 41.3134 14.2119C41.5852 14.998 41.721 15.8957 41.721 16.905C41.721 17.8949 41.5852 18.7877 41.3134 19.5835C41.0417 20.3793 40.6341 21.0053 40.0906 21.4614C39.5569 21.9175 38.8872 22.1456 38.0817 22.1456ZM38.0817 20.9664C38.5961 20.9664 39.028 20.8015 39.3773 20.4715C39.7364 20.1415 40.0081 19.6757 40.1925 19.074C40.3769 18.4626 40.4691 17.7396 40.4691 16.905C40.4691 16.0607 40.3769 15.3376 40.1925 14.7359C40.0081 14.1245 39.7364 13.6587 39.3773 13.3385C39.028 13.0085 38.5961 12.8435 38.0817 12.8435C37.5674 12.8435 37.1307 13.0085 36.7716 13.3385C36.4222 13.6587 36.1505 14.1245 35.9564 14.7359C35.772 15.3376 35.6798 16.0607 35.6798 16.905C35.6798 17.7396 35.772 18.4626 35.9564 19.074C36.1505 19.6757 36.4222 20.1415 36.7716 20.4715C37.1307 20.8015 37.5674 20.9664 38.0817 20.9664ZM45.1505 17.1233C44.7041 17.1233 44.3208 17.002 44.0005 16.7594C43.6899 16.5071 43.4473 16.1771 43.2726 15.7695C43.1077 15.3522 43.0252 14.9009 43.0252 14.4157C43.0252 13.9207 43.1077 13.4646 43.2726 13.0473C43.4473 12.63 43.6948 12.3 44.0151 12.0574C44.3353 11.8051 44.7186 11.6789 45.1651 11.6789C45.6115 11.6789 45.99 11.8051 46.3005 12.0574C46.6208 12.3 46.8634 12.63 47.0284 13.0473C47.1934 13.4549 47.2759 13.9062 47.2759 14.4011C47.2759 14.8961 47.1885 15.3522 47.0138 15.7695C46.8392 16.1771 46.5917 16.5071 46.2714 16.7594C45.9609 17.002 45.5872 17.1233 45.1505 17.1233ZM45.1651 16.1771C45.5339 16.1771 45.8056 16.0121 45.9803 15.6822C46.155 15.3425 46.2423 14.9203 46.2423 14.4157C46.2423 13.9013 46.1501 13.4743 45.9657 13.1347C45.7813 12.795 45.5096 12.6252 45.1505 12.6252C44.7817 12.6252 44.5051 12.7998 44.3208 13.1492C44.1461 13.4889 44.0587 13.9062 44.0587 14.4011C44.0587 14.9155 44.1509 15.3425 44.3353 15.6822C44.5294 16.0121 44.806 16.1771 45.1651 16.1771ZM51.2209 22.131C50.7842 22.131 50.4057 22.0097 50.0854 21.7671C49.7749 21.5148 49.5322 21.1848 49.3575 20.7772C49.1829 20.3599 49.0955 19.9086 49.0955 19.4234C49.0955 18.9284 49.178 18.4723 49.343 18.055C49.5177 17.6377 49.7652 17.3077 50.0854 17.0651C50.4057 16.8128 50.789 16.6866 51.2354 16.6866C51.6916 16.6866 52.0749 16.8128 52.3854 17.0651C52.7057 17.3077 52.9483 17.6377 53.1133 18.055C53.2783 18.4626 53.3608 18.9139 53.3608 19.4088C53.3608 19.9038 53.2734 20.3599 53.0988 20.7772C52.9241 21.1848 52.6766 21.5148 52.3563 21.7671C52.0458 22.0097 51.6673 22.131 51.2209 22.131ZM51.2354 21.1848C51.6139 21.1848 51.8905 21.0198 52.0652 20.6899C52.2399 20.3502 52.3272 19.928 52.3272 19.4234C52.3272 18.909 52.235 18.482 52.0506 18.1423C51.8662 17.8027 51.5897 17.6328 51.2209 17.6328C50.8521 17.6328 50.5755 17.8075 50.3911 18.1569C50.2164 18.4966 50.1291 18.9139 50.1291 19.4088C50.1291 19.9232 50.2213 20.3502 50.4057 20.6899C50.5998 21.0198 50.8764 21.1848 51.2354 21.1848ZM45.0923 22.0291C44.9758 22.0291 44.8594 21.9854 44.7429 21.8981C44.6265 21.8108 44.5682 21.6894 44.5682 21.5342C44.5682 21.4468 44.6022 21.3449 44.6701 21.2285L50.755 12.0137C50.8715 11.8488 51.0074 11.7663 51.1626 11.7663C51.2888 11.7663 51.4053 11.8099 51.512 11.8973C51.6285 11.9846 51.6867 12.1059 51.6867 12.2612C51.6867 12.3583 51.6576 12.4602 51.5994 12.5669L45.5144 21.7962C45.398 21.9515 45.2573 22.0291 45.0923 22.0291ZM68.4192 16.905C68.4192 17.6522 68.2979 18.3461 68.0553 18.9867C67.8126 19.6175 67.473 20.1706 67.0363 20.6462C66.5995 21.1217 66.0803 21.4905 65.4786 21.7525C64.8769 22.0146 64.2219 22.1456 63.5134 22.1456C62.7953 22.1456 62.1353 22.0146 61.5336 21.7525C60.9416 21.4905 60.4273 21.1217 59.9906 20.6462C59.5539 20.1706 59.2142 19.6175 58.9716 18.9867C58.7289 18.3461 58.6076 17.6522 58.6076 16.905C58.6076 16.148 58.7289 15.4541 58.9716 14.8233C59.2142 14.1828 59.5539 13.6296 59.9906 13.1638C60.4273 12.6882 60.9416 12.3195 61.5336 12.0574C62.1353 11.7954 62.7953 11.6644 63.5134 11.6644C64.2219 11.6644 64.8769 11.7954 65.4786 12.0574C66.0803 12.3195 66.5995 12.6882 67.0363 13.1638C67.473 13.6296 67.8126 14.1828 68.0553 14.8233C68.2979 15.4541 68.4192 16.148 68.4192 16.905ZM67.1673 16.905C67.1673 16.1092 67.0071 15.4056 66.6869 14.7942C66.3763 14.1828 65.9493 13.7024 65.4059 13.353C64.8624 13.0036 64.2316 12.829 63.5134 12.829C62.7953 12.829 62.1596 13.0036 61.6064 13.353C61.063 13.7024 60.6359 14.1828 60.3254 14.7942C60.0148 15.4056 59.8596 16.1092 59.8596 16.905C59.8596 17.6911 60.0148 18.3947 60.3254 19.0158C60.6359 19.6272 61.063 20.1076 61.6064 20.4569C62.1596 20.8063 62.7953 20.981 63.5134 20.981C64.2316 20.981 64.8624 20.8063 65.4059 20.4569C65.9493 20.1076 66.3763 19.6272 66.6869 19.0158C67.0071 18.3947 67.1673 17.6911 67.1673 16.905ZM73.2911 11.2568C73.4561 11.2568 73.6259 11.2762 73.8006 11.315C73.985 11.3538 74.1403 11.4218 74.2664 11.5188C74.4023 11.6159 74.4702 11.7469 74.4702 11.9118C74.4702 12.0671 74.4217 12.1981 74.3247 12.3049C74.2276 12.4019 74.1111 12.4505 73.9753 12.4505C73.8879 12.4505 73.7666 12.4262 73.6113 12.3777C73.4561 12.3195 73.2959 12.2903 73.131 12.2903C72.9077 12.2903 72.7234 12.3389 72.5778 12.4359C72.4419 12.533 72.34 12.664 72.2721 12.829C72.2139 12.9842 72.1847 13.1589 72.1847 13.353V21.4032C72.1847 21.5681 72.1265 21.7089 72.0101 21.8253C71.9033 21.9418 71.7674 22 71.6025 22C71.4278 22 71.287 21.9418 71.1803 21.8253C71.0735 21.7089 71.0202 21.5681 71.0202 21.4032V13.3676C71.0202 12.7173 71.2191 12.203 71.617 11.8245C72.0246 11.446 72.5826 11.2568 73.2911 11.2568ZM73.6987 14.5904C73.854 14.5904 73.985 14.6438 74.0917 14.7505C74.1985 14.8476 74.2519 14.9737 74.2519 15.129C74.2519 15.2843 74.1985 15.4153 74.0917 15.522C73.985 15.6191 73.854 15.6676 73.6987 15.6676H70.0448C69.8896 15.6676 69.7585 15.6142 69.6518 15.5075C69.545 15.4007 69.4917 15.2746 69.4917 15.129C69.4917 14.964 69.545 14.833 69.6518 14.7359C69.7585 14.6389 69.8896 14.5904 70.0448 14.5904H73.6987ZM78.9102 11.2568C79.0752 11.2568 79.245 11.2762 79.4197 11.315C79.6041 11.3538 79.7593 11.4218 79.8855 11.5188C80.0214 11.6159 80.0893 11.7469 80.0893 11.9118C80.0893 12.0671 80.0408 12.1981 79.9437 12.3049C79.8467 12.4019 79.7302 12.4505 79.5944 12.4505C79.507 12.4505 79.3857 12.4262 79.2304 12.3777C79.0752 12.3195 78.915 12.2903 78.75 12.2903C78.5268 12.2903 78.3424 12.3389 78.1969 12.4359C78.061 12.533 77.9591 12.664 77.8912 12.829C77.8329 12.9842 77.8038 13.1589 77.8038 13.353V21.4032C77.8038 21.5681 77.7456 21.7089 77.6291 21.8253C77.5224 21.9418 77.3865 22 77.2215 22C77.0469 22 76.9061 21.9418 76.7994 21.8253C76.6926 21.7089 76.6392 21.5681 76.6392 21.4032V13.3676C76.6392 12.7173 76.8382 12.203 77.2361 11.8245C77.6437 11.446 78.2017 11.2568 78.9102 11.2568ZM79.3178 14.5904C79.4731 14.5904 79.6041 14.6438 79.7108 14.7505C79.8176 14.8476 79.871 14.9737 79.871 15.129C79.871 15.2843 79.8176 15.4153 79.7108 15.522C79.6041 15.6191 79.4731 15.6676 79.3178 15.6676H75.6639C75.5086 15.6676 75.3776 15.6142 75.2709 15.5075C75.1641 15.4007 75.1107 15.2746 75.1107 15.129C75.1107 14.964 75.1641 14.833 75.2709 14.7359C75.3776 14.6389 75.5086 14.5904 75.6639 14.5904H79.3178Z" fill="white"/>
</svg>
